{"glyphs":{"0":{"ha":543,"x_min":0,"x_max":509,"o":"m 271 203 l 271 712 l 237 712 l 237 203 l 271 203 m 0 746 q 203 949 0 949 l 271 949 q 439 880 390 949 q 509 712 509 831 l 509 170 q 305 -34 509 -34 l 237 -34 q 70 35 119 -34 q 0 203 0 85 l 0 746 m 203 882 q 68 746 68 882 l 68 203 q 203 68 68 68 l 271 68 q 407 203 407 68 l 407 746 q 271 882 407 882 l 203 882 m 136 746 q 203 814 136 814 l 271 814 q 339 746 339 814 l 339 203 q 271 136 339 136 l 203 136 q 136 203 136 136 l 136 746 z "},"1":{"ha":339,"x_min":0,"x_max":305,"o":"m 203 882 l 68 882 l 68 814 l 136 814 l 136 68 l 203 68 l 203 882 m 271 949 l 271 916 l 305 916 l 305 -34 l 102 -34 l 102 0 l 68 0 l 68 712 l 34 712 l 34 746 l 0 746 l 0 949 l 271 949 z "},"2":{"ha":543,"x_min":0,"x_max":509,"o":"m 407 746 q 271 882 407 882 l 203 882 q 68 746 68 882 l 68 712 l 136 712 l 136 746 q 203 814 136 814 l 271 814 q 339 746 339 814 l 339 576 q 271 509 339 509 l 203 509 q 68 373 68 509 l 68 68 l 407 68 l 407 237 l 339 237 l 339 136 l 136 136 l 136 373 q 203 441 136 441 l 271 441 q 407 576 407 441 l 407 746 m 439 880 q 509 712 509 831 l 509 543 q 305 339 509 339 l 237 339 l 237 203 l 271 203 l 271 305 l 475 305 l 475 237 l 509 237 l 509 -34 l 34 -34 l 34 0 l 0 0 l 0 373 q 203 576 0 576 l 271 576 l 271 712 l 237 712 l 237 610 l 34 610 l 34 644 l 0 644 l 0 746 q 203 949 0 949 l 271 949 q 439 880 390 949 z "},"3":{"ha":543,"x_min":0,"x_max":509,"o":"m 407 746 q 271 882 407 882 l 68 882 l 68 814 l 271 814 q 339 746 339 814 l 339 576 q 271 509 339 509 l 136 509 l 136 441 l 271 441 q 339 373 339 441 l 339 203 q 271 136 339 136 l 68 136 l 68 68 l 271 68 q 407 203 407 68 l 407 407 q 339 475 407 475 q 407 543 407 475 l 407 746 m 439 880 q 509 712 509 831 l 509 475 q 503 441 509 455 q 509 407 509 427 l 509 170 q 305 -34 509 -34 l 34 -34 l 34 0 l 0 0 l 0 203 l 271 203 l 271 339 l 102 339 l 102 373 l 68 373 l 68 576 l 271 576 l 271 712 l 34 712 l 34 746 l 0 746 l 0 949 l 271 949 q 439 880 390 949 z "},"4":{"ha":543,"x_min":0,"x_max":509,"o":"m 136 882 l 68 882 l 68 305 l 339 305 l 339 68 l 407 68 l 407 882 l 339 882 l 339 373 l 136 373 l 136 882 m 203 949 l 203 916 l 237 916 l 237 441 l 271 441 l 271 949 l 475 949 l 475 916 l 509 916 l 509 -34 l 305 -34 l 305 0 l 271 0 l 271 203 l 34 203 l 34 237 l 0 237 l 0 949 l 203 949 z "},"5":{"ha":543,"x_min":0,"x_max":509,"o":"m 0 949 l 475 949 l 475 916 l 509 916 l 509 610 l 305 610 l 305 644 l 271 644 l 271 712 l 237 712 l 237 576 l 271 576 q 439 507 390 576 q 509 339 509 458 l 509 170 q 305 -34 509 -34 l 237 -34 q 70 35 119 -34 q 0 203 0 85 l 0 305 l 203 305 l 203 203 l 271 203 l 271 339 l 34 339 l 34 373 l 0 373 l 0 949 m 68 882 l 68 441 l 271 441 q 339 373 339 441 l 339 203 q 271 136 339 136 l 203 136 q 136 203 136 136 l 136 237 l 68 237 l 68 203 q 203 68 68 68 l 271 68 q 407 203 407 68 l 407 373 q 271 509 407 509 l 136 509 l 136 814 l 339 814 l 339 712 l 407 712 l 407 882 l 68 882 z "},"6":{"ha":543,"x_min":0,"x_max":509,"o":"m 339 203 q 271 136 339 136 l 203 136 q 136 203 136 136 l 136 407 q 203 475 136 475 l 271 475 q 339 407 339 475 l 339 203 m 271 203 l 271 373 l 237 373 l 237 203 l 271 203 m 0 746 q 203 949 0 949 l 271 949 q 439 880 390 949 q 509 712 509 831 l 509 610 l 305 610 l 305 644 l 271 644 l 271 712 l 237 712 l 237 610 l 271 610 q 509 373 509 610 l 509 170 q 305 -34 509 -34 l 237 -34 q 70 35 119 -34 q 0 203 0 85 l 0 746 m 203 882 q 68 746 68 882 l 68 203 q 203 68 68 68 l 271 68 q 407 203 407 68 l 407 407 q 271 543 407 543 l 203 543 q 136 531 163 543 l 136 746 q 203 814 136 814 l 271 814 q 339 746 339 814 l 339 712 l 407 712 l 407 746 q 271 882 407 882 l 203 882 z "},"7":{"ha":475,"x_min":-29,"x_max":470,"o":"m 347 882 l 68 882 l 68 814 l 259 814 l 60 68 l 130 68 l 347 882 m 427 916 l 470 916 l 216 -34 l 34 -34 l 34 0 l -29 0 l 161 712 l 34 712 l 34 746 l 0 746 l 0 949 l 436 949 l 427 916 z "},"8":{"ha":543,"x_min":0,"x_max":509,"o":"m 237 576 l 271 576 l 271 712 l 237 712 l 237 576 m 203 882 q 68 746 68 882 l 68 543 q 136 475 68 475 q 68 407 68 475 l 68 203 q 203 68 68 68 l 271 68 q 407 203 407 68 l 407 407 q 339 475 407 475 q 407 543 407 475 l 407 746 q 271 882 407 882 l 203 882 m 0 746 q 203 949 0 949 l 271 949 q 439 880 390 949 q 509 712 509 831 l 509 475 q 503 441 509 455 q 509 407 509 427 l 509 170 q 305 -34 509 -34 l 237 -34 q 70 35 119 -34 q 0 203 0 85 l 0 441 q 6 475 0 460 q 0 509 0 489 l 0 746 m 203 136 q 136 203 136 136 l 136 373 q 203 441 136 441 l 271 441 q 339 373 339 441 l 339 203 q 271 136 339 136 l 203 136 m 237 203 l 271 203 l 271 339 l 237 339 l 237 203 m 136 746 q 203 814 136 814 l 271 814 q 339 746 339 814 l 339 576 q 271 509 339 509 l 203 509 q 136 576 136 509 l 136 746 z "},"9":{"ha":543,"x_min":0,"x_max":509,"o":"m 237 712 l 237 543 l 271 543 l 271 712 l 237 712 m 136 746 q 203 814 136 814 l 271 814 q 339 746 339 814 l 339 543 q 271 475 339 475 l 203 475 q 136 543 136 475 l 136 746 m 271 68 q 407 203 407 68 l 407 746 q 271 882 407 882 l 203 882 q 68 746 68 882 l 68 543 q 203 407 68 407 l 271 407 q 339 418 311 407 l 339 203 q 271 136 339 136 l 203 136 q 136 203 136 136 l 136 237 l 68 237 l 68 203 q 203 68 68 68 l 271 68 m 237 203 l 271 203 l 271 339 l 203 339 q 0 543 0 339 l 0 746 q 203 949 0 949 l 271 949 q 439 880 390 949 q 509 712 509 831 l 509 170 q 305 -34 509 -34 l 237 -34 q 70 35 119 -34 q 0 203 0 85 l 0 305 l 203 305 l 203 271 l 237 271 l 237 203 z "},"\u0000":{"ha":0,"x_min":0,"x_max":0,"o":""}," ":{"ha":203,"x_min":0,"x_max":0,"o":""},"!":{"ha":271,"x_min":0,"x_max":237,"o":"m 136 136 l 68 136 l 68 68 l 136 68 l 136 136 m 136 882 l 68 882 l 68 271 l 136 271 l 136 882 m 237 -34 l 34 -34 l 34 0 l 0 0 l 0 949 l 203 949 l 203 916 l 237 916 l 237 -34 z "},"\"":{"ha":543,"x_min":0,"x_max":509,"o":"m 203 949 l 203 916 l 237 916 l 237 576 l 34 576 l 34 610 l 0 610 l 0 949 l 203 949 m 136 882 l 68 882 l 68 678 l 136 678 l 136 882 m 475 949 l 475 916 l 509 916 l 509 576 l 305 576 l 305 610 l 271 610 l 271 949 l 475 949 m 407 882 l 339 882 l 339 678 l 407 678 l 407 882 z "},"#":{"ha":610,"x_min":0,"x_max":644,"o":"m 407 271 l 203 271 l 203 678 l 407 678 l 407 271 m 339 576 l 305 576 l 305 339 l 339 339 l 339 576 m 136 271 l 68 271 l 68 203 l 136 203 l 136 68 l 203 68 l 203 203 l 407 203 l 407 68 l 475 68 l 475 203 l 543 203 l 543 271 l 475 271 l 475 678 l 543 678 l 543 746 l 475 746 l 475 882 l 407 882 l 407 746 l 203 746 l 203 882 l 136 882 l 136 746 l 68 746 l 68 678 l 136 678 l 136 271 m 576 814 l 610 814 l 610 780 l 644 780 l 644 576 l 576 576 l 576 339 l 610 339 l 610 305 l 644 305 l 644 102 l 576 102 l 576 -34 l 373 -34 l 373 0 l 339 0 l 339 136 l 305 136 l 305 -34 l 102 -34 l 102 0 l 68 0 l 68 102 l 34 102 l 34 136 l 0 136 l 0 339 l 68 339 l 68 576 l 34 576 l 34 610 l 0 610 l 0 814 l 68 814 l 68 949 l 271 949 l 271 916 l 305 916 l 305 814 l 339 814 l 339 949 l 543 949 l 543 916 l 576 916 l 576 814 z "},"$":{"ha":543,"x_min":0,"x_max":509,"o":"m 203 -68 l 271 -68 l 271 68 q 407 203 407 68 l 407 373 q 271 509 407 509 l 203 509 q 136 576 136 509 l 136 746 q 203 814 136 814 l 271 814 q 339 746 339 814 l 339 712 l 407 712 l 407 746 q 271 882 407 882 l 271 1017 l 203 1017 l 203 882 q 68 746 68 882 l 68 576 q 203 441 68 441 l 271 441 q 339 373 339 441 l 339 203 q 271 136 339 136 l 203 136 q 136 203 136 136 l 136 237 l 68 237 l 68 203 q 203 68 68 68 l 203 -68 m 373 -27 l 373 -170 l 170 -170 l 170 -136 l 136 -136 l 136 -16 q 70 35 94 1 q 0 203 0 85 l 0 305 l 203 305 l 203 271 l 237 271 l 237 203 l 271 203 l 271 373 l 203 373 q 0 576 0 373 l 0 746 q 136 943 0 912 l 136 1085 l 339 1085 l 339 1051 l 373 1051 l 373 932 q 439 880 415 915 q 509 712 509 831 l 509 610 l 305 610 l 305 644 l 271 644 l 271 712 l 237 712 l 237 576 l 305 576 q 509 373 509 576 l 509 170 q 373 -27 509 3 z "},"%":{"ha":475,"x_min":-29,"x_max":470,"o":"m 136 882 l 68 882 l 68 814 l 136 814 l 136 882 m 339 136 l 271 136 l 271 68 l 339 68 l 339 136 m 161 712 l 34 712 l 34 746 l 0 746 l 0 949 l 203 949 l 203 916 l 216 916 l 225 949 l 436 949 l 427 916 l 470 916 l 279 203 l 407 203 l 407 170 l 441 170 l 441 -34 l 237 -34 l 237 0 l 224 0 l 216 -34 l 34 -34 l 34 0 l -29 0 l 161 712 m 60 68 l 130 68 l 347 882 l 277 882 l 60 68 z "},"&":{"ha":475,"x_min":0,"x_max":441,"o":"m 136 271 l 102 271 l 102 339 l 34 339 l 34 373 l 0 373 l 0 576 l 102 576 l 102 678 l 305 678 l 305 644 l 339 644 l 339 576 l 407 576 l 407 543 l 441 543 l 441 339 l 339 339 l 339 237 l 136 237 l 136 271 m 237 339 l 237 441 l 339 441 l 339 509 l 237 509 l 237 610 l 170 610 l 170 509 l 68 509 l 68 441 l 170 441 l 170 339 l 237 339 z "},"'":{"ha":271,"x_min":0,"x_max":237,"o":"m 203 949 l 203 916 l 237 916 l 237 576 l 34 576 l 34 610 l 0 610 l 0 949 l 203 949 m 136 882 l 68 882 l 68 678 l 136 678 l 136 882 z "},"(":{"ha":407,"x_min":0,"x_max":373,"o":"m 237 -102 q 70 -33 119 -102 q 0 136 0 17 l 0 814 q 203 1017 0 1017 l 339 1017 l 339 983 l 373 983 l 373 780 l 237 780 l 237 136 l 339 136 l 339 102 l 373 102 l 373 -102 l 237 -102 m 271 949 l 203 949 q 68 814 68 949 l 68 136 q 203 0 68 0 l 271 0 l 271 68 l 203 68 q 136 136 136 68 l 136 814 q 203 882 136 882 l 271 882 l 271 949 z "},")":{"ha":407,"x_min":0,"x_max":373,"o":"m 271 814 q 136 949 271 949 l 68 949 l 68 882 l 136 882 q 203 814 203 882 l 203 136 q 136 68 203 68 l 68 68 l 68 0 l 136 0 q 271 136 271 0 l 271 814 m 34 814 l 0 814 l 0 1017 l 136 1017 q 304 947 254 1017 q 373 780 373 899 l 373 102 q 170 -102 373 -102 l 34 -102 l 34 -68 l 0 -68 l 0 136 l 136 136 l 136 780 l 34 780 l 34 814 z "},"*":{"ha":475,"x_min":0,"x_max":441,"o":"m 136 543 l 102 543 l 102 610 l 34 610 l 34 644 l 0 644 l 0 848 l 102 848 l 102 949 l 305 949 l 305 916 l 339 916 l 339 848 l 407 848 l 407 814 l 441 814 l 441 610 l 339 610 l 339 509 l 136 509 l 136 543 m 237 610 l 237 712 l 339 712 l 339 780 l 237 780 l 237 882 l 170 882 l 170 780 l 68 780 l 68 712 l 170 712 l 170 610 l 237 610 z "},"+":{"ha":475,"x_min":0,"x_max":441,"o":"m 136 271 l 102 271 l 102 339 l 34 339 l 34 373 l 0 373 l 0 576 l 102 576 l 102 678 l 305 678 l 305 644 l 339 644 l 339 576 l 407 576 l 407 543 l 441 543 l 441 339 l 339 339 l 339 237 l 136 237 l 136 271 m 237 339 l 237 441 l 339 441 l 339 509 l 237 509 l 237 610 l 170 610 l 170 509 l 68 509 l 68 441 l 170 441 l 170 339 l 237 339 z "},",":{"ha":271,"x_min":0,"x_max":237,"o":"m 203 203 l 203 170 l 237 170 l 237 -170 l 34 -170 l 34 -136 l 0 -136 l 0 203 l 203 203 m 136 136 l 68 136 l 68 -68 l 136 -68 l 136 136 z "},"-":{"ha":475,"x_min":0,"x_max":441,"o":"m 407 576 l 407 543 l 441 543 l 441 339 l 34 339 l 34 373 l 0 373 l 0 576 l 407 576 m 339 509 l 68 509 l 68 441 l 339 441 l 339 509 z "},".":{"ha":271,"x_min":0,"x_max":237,"o":"m 203 203 l 203 170 l 237 170 l 237 -34 l 34 -34 l 34 0 l 0 0 l 0 203 l 203 203 m 136 136 l 68 136 l 68 68 l 136 68 l 136 136 z "},"/":{"ha":475,"x_min":-29,"x_max":470,"o":"m 34 0 l -29 0 l 225 949 l 436 949 l 427 916 l 470 916 l 216 -34 l 34 -34 l 34 0 m 60 68 l 130 68 l 347 882 l 277 882 l 60 68 z "},":":{"ha":271,"x_min":0,"x_max":237,"o":"m 203 203 l 203 170 l 237 170 l 237 -34 l 34 -34 l 34 0 l 0 0 l 0 203 l 203 203 m 136 136 l 68 136 l 68 68 l 136 68 l 136 136 m 203 694 l 203 661 l 237 661 l 237 457 l 34 457 l 34 491 l 0 491 l 0 694 l 203 694 m 136 627 l 68 627 l 68 559 l 136 559 l 136 627 z "},";":{"ha":271,"x_min":0,"x_max":237,"o":"m 203 203 l 203 170 l 237 170 l 237 -170 l 34 -170 l 34 -136 l 0 -136 l 0 203 l 203 203 m 136 136 l 68 136 l 68 -68 l 136 -68 l 136 136 m 203 694 l 203 661 l 237 661 l 237 457 l 34 457 l 34 491 l 0 491 l 0 694 l 203 694 m 136 627 l 68 627 l 68 559 l 136 559 l 136 627 z "},"<":{"ha":407,"x_min":0,"x_max":373,"o":"m 271 949 l 68 949 l 68 0 l 271 0 l 271 68 l 136 68 l 136 882 l 271 882 l 271 949 m 0 -68 l 0 1017 l 339 1017 l 339 983 l 373 983 l 373 780 l 237 780 l 237 136 l 339 136 l 339 102 l 373 102 l 373 -102 l 34 -102 l 34 -68 l 0 -68 z "},"=":{"ha":475,"x_min":0,"x_max":441,"o":"m 339 576 l 68 576 l 68 509 l 339 509 l 339 576 m 339 441 l 68 441 l 68 373 l 339 373 l 339 441 m 0 644 l 407 644 l 407 610 l 441 610 l 441 271 l 34 271 l 34 305 l 0 305 l 0 644 z "},">":{"ha":407,"x_min":0,"x_max":373,"o":"m 68 949 l 68 882 l 203 882 l 203 68 l 68 68 l 68 0 l 271 0 l 271 949 l 68 949 m 34 814 l 0 814 l 0 1017 l 339 1017 l 339 983 l 373 983 l 373 -102 l 34 -102 l 34 -68 l 0 -68 l 0 136 l 136 136 l 136 780 l 34 780 l 34 814 z "},"?":{"ha":543,"x_min":0,"x_max":509,"o":"m 407 746 q 271 882 407 882 l 203 882 q 68 746 68 882 l 68 712 l 136 712 l 136 746 q 203 814 136 814 l 271 814 q 339 746 339 814 l 339 576 q 271 509 339 509 l 237 509 q 102 373 102 509 l 102 271 l 170 271 l 170 373 q 237 441 170 441 l 271 441 q 407 576 407 441 l 407 746 m 170 136 l 102 136 l 102 68 l 170 68 l 170 136 m 34 373 q 237 576 34 576 l 271 576 l 271 712 l 237 712 l 237 610 l 34 610 l 34 644 l 0 644 l 0 746 q 203 949 0 949 l 271 949 q 439 880 390 949 q 509 712 509 831 l 509 543 q 305 339 509 339 l 271 339 l 271 -34 l 68 -34 l 68 0 l 34 0 l 34 373 z "},"@":{"ha":882,"x_min":0,"x_max":848,"o":"m 610 203 l 610 712 l 237 712 l 237 203 l 610 203 m 0 746 q 203 949 0 949 l 610 949 q 779 880 729 949 q 848 712 848 831 l 848 170 q 644 -34 848 -34 l 237 -34 q 70 35 119 -34 q 0 203 0 85 l 0 746 m 203 882 q 68 746 68 882 l 68 203 q 203 68 68 68 l 610 68 q 746 203 746 68 l 746 746 q 610 882 746 882 l 203 882 m 136 746 q 203 814 136 814 l 610 814 q 678 746 678 814 l 678 203 q 610 136 678 136 l 203 136 q 136 203 136 136 l 136 746 m 509 576 l 509 543 l 543 543 l 543 339 l 339 339 l 339 373 l 305 373 l 305 576 l 509 576 m 441 509 l 373 509 l 373 441 l 441 441 l 441 509 z "},"A":{"ha":475,"x_min":-68,"x_max":509,"o":"m 159 882 l 135 749 l 14 68 l 82 68 l 94 136 l 313 136 l 325 68 l 393 68 l 249 882 l 159 882 m 187 271 l 220 271 l 203 362 l 187 271 m 106 203 l 203 751 l 301 203 l 106 203 m 306 949 l 312 916 l 340 916 l 509 -34 l 302 -34 l 296 0 l 268 0 l 262 34 l 185 34 l 173 -34 l -34 -34 l -28 0 l -68 0 l -56 68 l 101 949 l 306 949 z "},"B":{"ha":543,"x_min":0,"x_max":509,"o":"m 407 746 q 271 882 407 882 l 68 882 l 68 68 l 271 68 q 407 203 407 68 l 407 407 q 339 475 407 475 q 407 543 407 475 l 407 746 m 439 880 q 509 712 509 831 l 509 475 q 503 441 509 455 q 509 407 509 427 l 509 170 q 305 -34 509 -34 l 34 -34 l 34 0 l 0 0 l 0 949 l 271 949 q 439 880 390 949 m 339 203 q 271 136 339 136 l 136 136 l 136 441 l 271 441 q 339 373 339 441 l 339 203 m 271 203 l 271 339 l 237 339 l 237 203 l 271 203 m 237 576 l 271 576 l 271 712 l 237 712 l 237 576 m 271 814 q 339 746 339 814 l 339 576 q 271 509 339 509 l 136 509 l 136 814 l 271 814 z "},"C":{"ha":543,"x_min":0,"x_max":509,"o":"m 0 746 q 203 949 0 949 l 271 949 q 439 880 390 949 q 509 712 509 831 l 509 576 l 305 576 l 305 610 l 271 610 l 271 712 l 237 712 l 237 203 l 271 203 l 271 339 l 475 339 l 475 305 l 509 305 l 509 170 q 305 -34 509 -34 l 237 -34 q 70 35 119 -34 q 0 203 0 85 l 0 746 m 203 882 q 68 746 68 882 l 68 203 q 203 68 68 68 l 271 68 q 407 203 407 68 l 407 271 l 339 271 l 339 203 q 271 136 339 136 l 203 136 q 136 203 136 136 l 136 746 q 203 814 136 814 l 271 814 q 339 746 339 814 l 339 678 l 407 678 l 407 746 q 271 882 407 882 l 203 882 z "},"D":{"ha":543,"x_min":0,"x_max":509,"o":"m 407 746 q 271 882 407 882 l 68 882 l 68 68 l 271 68 q 407 203 407 68 l 407 746 m 439 880 q 509 712 509 831 l 509 170 q 305 -34 509 -34 l 34 -34 l 34 0 l 0 0 l 0 949 l 271 949 q 439 880 390 949 m 271 203 l 271 712 l 237 712 l 237 203 l 271 203 m 271 814 q 339 746 339 814 l 339 203 q 271 136 339 136 l 136 136 l 136 814 l 271 814 z "},"E":{"ha":475,"x_min":0,"x_max":441,"o":"m 339 882 l 68 882 l 68 68 l 339 68 l 339 136 l 136 136 l 136 441 l 339 441 l 339 509 l 136 509 l 136 814 l 339 814 l 339 882 m 407 949 l 407 916 l 441 916 l 441 712 l 237 712 l 237 576 l 407 576 l 407 543 l 441 543 l 441 339 l 237 339 l 237 203 l 407 203 l 407 170 l 441 170 l 441 -34 l 34 -34 l 34 0 l 0 0 l 0 949 l 407 949 z "},"F":{"ha":475,"x_min":0,"x_max":441,"o":"m 339 882 l 68 882 l 68 68 l 136 68 l 136 441 l 339 441 l 339 509 l 136 509 l 136 814 l 339 814 l 339 882 m 407 949 l 407 916 l 441 916 l 441 712 l 237 712 l 237 576 l 407 576 l 407 543 l 441 543 l 441 339 l 237 339 l 237 -34 l 34 -34 l 34 0 l 0 0 l 0 949 l 407 949 z "},"G":{"ha":543,"x_min":0,"x_max":509,"o":"m 271 203 l 271 339 l 237 339 l 237 203 l 271 203 m 0 746 q 203 949 0 949 l 271 949 q 439 880 390 949 q 509 712 509 831 l 509 644 l 271 644 l 271 712 l 237 712 l 237 576 l 509 576 l 509 170 q 305 -34 509 -34 l 237 -34 q 70 35 119 -34 q 0 203 0 85 l 0 746 m 203 882 q 68 746 68 882 l 68 203 q 203 68 68 68 l 271 68 q 407 203 407 68 l 407 509 l 237 509 l 237 441 l 339 441 l 339 203 q 271 136 339 136 l 203 136 q 136 203 136 136 l 136 746 q 203 814 136 814 l 271 814 q 339 746 339 814 l 339 712 l 407 712 l 407 746 q 271 882 407 882 l 203 882 z "},"H":{"ha":543,"x_min":0,"x_max":509,"o":"m 136 882 l 68 882 l 68 68 l 136 68 l 136 441 l 339 441 l 339 68 l 407 68 l 407 882 l 339 882 l 339 509 l 136 509 l 136 882 m 203 949 l 203 916 l 237 916 l 237 576 l 271 576 l 271 949 l 475 949 l 475 916 l 509 916 l 509 -34 l 305 -34 l 305 0 l 271 0 l 271 373 l 237 373 l 237 -34 l 34 -34 l 34 0 l 0 0 l 0 949 l 203 949 z "},"I":{"ha":271,"x_min":0,"x_max":237,"o":"m 203 949 l 203 916 l 237 916 l 237 -34 l 34 -34 l 34 0 l 0 0 l 0 949 l 203 949 m 136 882 l 68 882 l 68 68 l 136 68 l 136 882 z "},"J":{"ha":543,"x_min":0,"x_max":509,"o":"m 68 271 l 68 203 q 203 68 68 68 l 271 68 q 407 203 407 68 l 407 882 l 339 882 l 339 203 q 271 136 339 136 l 203 136 q 136 203 136 136 l 136 271 l 68 271 m 203 305 l 237 305 l 237 203 l 271 203 l 271 949 l 475 949 l 475 916 l 509 916 l 509 170 q 305 -34 509 -34 l 237 -34 q 70 35 119 -34 q 0 203 0 85 l 0 339 l 203 339 l 203 305 z "},"K":{"ha":475,"x_min":0,"x_max":470,"o":"m 347 882 l 277 882 l 187 543 l 136 543 l 136 882 l 68 882 l 68 68 l 136 68 l 136 407 l 187 407 l 277 68 l 347 68 l 239 475 l 347 882 m 436 949 l 427 916 l 470 916 l 343 441 l 470 -34 l 259 -34 l 250 0 l 237 0 l 237 -34 l 34 -34 l 34 0 l 0 0 l 0 949 l 203 949 l 203 916 l 216 916 l 225 949 l 436 949 z "},"L":{"ha":475,"x_min":0,"x_max":441,"o":"m 339 68 l 339 136 l 136 136 l 136 882 l 68 882 l 68 68 l 339 68 m 34 0 l 0 0 l 0 949 l 203 949 l 203 916 l 237 916 l 237 203 l 407 203 l 407 170 l 441 170 l 441 -34 l 34 -34 l 34 0 z "},"M":{"ha":678,"x_min":0,"x_max":644,"o":"m 165 882 l 68 882 l 68 68 l 136 68 l 136 730 l 305 83 l 475 730 l 475 68 l 543 68 l 543 882 l 445 882 l 305 349 l 165 882 m 218 949 l 227 916 l 252 916 l 317 664 l 393 949 l 610 949 l 610 916 l 644 916 l 644 -34 l 441 -34 l 441 0 l 407 0 l 407 41 l 387 -34 l 291 -34 l 282 0 l 257 0 l 237 75 l 237 -34 l 34 -34 l 34 0 l 0 0 l 0 949 l 218 949 z "},"N":{"ha":543,"x_min":0,"x_max":509,"o":"m 165 882 l 68 882 l 68 68 l 136 68 l 136 730 l 309 68 l 407 68 l 407 882 l 339 882 l 339 220 l 165 882 m 218 949 l 227 916 l 252 916 l 271 841 l 271 949 l 475 949 l 475 916 l 509 916 l 509 -34 l 291 -34 l 282 0 l 257 0 l 237 75 l 237 -34 l 34 -34 l 34 0 l 0 0 l 0 949 l 218 949 z "},"O":{"ha":543,"x_min":0,"x_max":509,"o":"m 271 203 l 271 712 l 237 712 l 237 203 l 271 203 m 0 746 q 203 949 0 949 l 271 949 q 439 880 390 949 q 509 712 509 831 l 509 170 q 305 -34 509 -34 l 237 -34 q 70 35 119 -34 q 0 203 0 85 l 0 746 m 203 882 q 68 746 68 882 l 68 203 q 203 68 68 68 l 271 68 q 407 203 407 68 l 407 746 q 271 882 407 882 l 203 882 m 136 746 q 203 814 136 814 l 271 814 q 339 746 339 814 l 339 203 q 271 136 339 136 l 203 136 q 136 203 136 136 l 136 746 z "},"P":{"ha":543,"x_min":0,"x_max":509,"o":"m 407 746 q 271 882 407 882 l 68 882 l 68 68 l 136 68 l 136 441 l 271 441 q 407 576 407 441 l 407 746 m 439 880 q 509 712 509 831 l 509 543 q 305 339 509 339 l 237 339 l 237 -34 l 34 -34 l 34 0 l 0 0 l 0 949 l 271 949 q 439 880 390 949 m 237 576 l 271 576 l 271 712 l 237 712 l 237 576 m 271 814 q 339 746 339 814 l 339 576 q 271 509 339 509 l 136 509 l 136 814 l 271 814 z "},"Q":{"ha":543,"x_min":0,"x_max":509,"o":"m 237 712 l 237 203 l 271 203 l 271 712 l 237 712 m 136 746 q 203 814 136 814 l 271 814 q 339 746 339 814 l 339 203 q 271 136 339 136 l 203 136 q 136 203 136 136 l 136 746 m 271 -34 l 271 68 q 407 203 407 68 l 407 746 q 271 882 407 882 l 203 882 q 68 746 68 882 l 68 203 q 203 68 68 68 l 203 -34 l 271 -34 m 170 -102 l 136 -102 l 136 -17 q 69 35 94 1 q 0 203 0 85 l 0 746 q 203 949 0 949 l 271 949 q 439 880 390 949 q 509 712 509 831 l 509 170 q 373 -27 509 3 l 373 -136 l 170 -136 l 170 -102 z "},"R":{"ha":543,"x_min":0,"x_max":509,"o":"m 407 746 q 271 882 407 882 l 68 882 l 68 68 l 136 68 l 136 441 l 271 441 q 339 373 339 441 l 339 68 l 407 68 l 407 407 q 339 475 407 475 q 407 543 407 475 l 407 746 m 439 880 q 509 712 509 831 l 509 475 q 503 441 509 455 q 509 407 509 427 l 509 -34 l 305 -34 l 305 0 l 271 0 l 271 339 l 237 339 l 237 -34 l 34 -34 l 34 0 l 0 0 l 0 949 l 271 949 q 439 880 390 949 m 237 576 l 271 576 l 271 712 l 237 712 l 237 576 m 271 814 q 339 746 339 814 l 339 576 q 271 509 339 509 l 136 509 l 136 814 l 271 814 z "},"S":{"ha":543,"x_min":0,"x_max":509,"o":"m 203 882 q 68 746 68 882 l 68 576 q 203 441 68 441 l 271 441 q 339 373 339 441 l 339 203 q 271 136 339 136 l 203 136 q 136 203 136 136 l 136 237 l 68 237 l 68 203 q 203 68 68 68 l 271 68 q 407 203 407 68 l 407 373 q 271 509 407 509 l 203 509 q 136 576 136 509 l 136 746 q 203 814 136 814 l 271 814 q 339 746 339 814 l 339 712 l 407 712 l 407 746 q 271 882 407 882 l 203 882 m 237 203 l 271 203 l 271 373 l 203 373 q 0 576 0 373 l 0 746 q 203 949 0 949 l 271 949 q 439 880 390 949 q 509 712 509 831 l 509 610 l 305 610 l 305 644 l 271 644 l 271 712 l 237 712 l 237 576 l 305 576 q 509 373 509 576 l 509 170 q 305 -34 509 -34 l 237 -34 q 70 35 119 -34 q 0 203 0 85 l 0 305 l 203 305 l 203 271 l 237 271 l 237 203 z "},"T":{"ha":543,"x_min":0,"x_max":509,"o":"m 407 882 l 68 882 l 68 814 l 203 814 l 203 68 l 271 68 l 271 814 l 407 814 l 407 882 m 475 949 l 475 916 l 509 916 l 509 712 l 373 712 l 373 -34 l 170 -34 l 170 0 l 136 0 l 136 712 l 34 712 l 34 746 l 0 746 l 0 949 l 475 949 z "},"U":{"ha":543,"x_min":0,"x_max":509,"o":"m 68 882 l 68 203 q 203 68 68 68 l 271 68 q 407 203 407 68 l 407 882 l 339 882 l 339 203 q 271 136 339 136 l 203 136 q 136 203 136 136 l 136 882 l 68 882 m 475 916 l 509 916 l 509 170 q 305 -34 509 -34 l 237 -34 q 70 35 119 -34 q 0 203 0 85 l 0 949 l 203 949 l 203 916 l 237 916 l 237 203 l 271 203 l 271 949 l 475 949 l 475 916 z "},"V":{"ha":475,"x_min":-68,"x_max":509,"o":"m 159 68 l 249 68 l 393 882 l 325 882 l 203 198 l 82 882 l 14 882 l 159 68 m 128 0 l 102 0 l -68 949 l 139 949 l 145 916 l 173 916 l 218 666 l 268 949 l 475 949 l 469 916 l 509 916 l 340 -34 l 135 -34 l 128 0 z "},"W":{"ha":814,"x_min":-68,"x_max":848,"o":"m 159 68 l 249 68 l 373 766 l 498 68 l 588 68 l 732 882 l 664 882 l 543 198 l 421 882 l 325 882 l 203 198 l 82 882 l 14 882 l 159 68 m 130 0 l 100 0 l -68 949 l 139 949 l 145 916 l 173 916 l 218 666 l 268 949 l 478 949 l 484 916 l 512 916 l 557 666 l 607 949 l 814 949 l 808 916 l 848 916 l 680 -28 l 679 -34 l 474 -34 l 469 0 l 441 0 l 393 265 l 340 -34 l 135 -34 l 130 0 z "},"X":{"ha":475,"x_min":-29,"x_max":470,"o":"m 14 0 l -29 0 l 98 475 l -29 949 l 182 949 l 191 916 l 216 916 l 216 915 l 225 949 l 436 949 l 427 916 l 470 916 l 343 441 l 470 -34 l 259 -34 l 250 0 l 225 0 l 225 1 l 216 -34 l 5 -34 l 14 0 m 130 68 l 203 345 l 277 68 l 347 68 l 239 475 l 347 882 l 277 882 l 203 605 l 130 882 l 60 882 l 169 475 l 60 68 l 130 68 z "},"Y":{"ha":475,"x_min":-29,"x_max":470,"o":"m 347 882 l 277 882 l 203 605 l 130 882 l 60 882 l 170 472 l 170 68 l 237 68 l 237 470 l 347 882 m 436 949 l 427 916 l 470 916 l 339 426 l 339 -34 l 136 -34 l 136 0 l 102 0 l 102 462 l -29 949 l 182 949 l 191 916 l 216 916 l 216 915 l 225 949 l 436 949 z "},"Z":{"ha":475,"x_min":-29,"x_max":470,"o":"m 14 0 l -29 0 l 161 712 l 34 712 l 34 746 l 0 746 l 0 949 l 436 949 l 427 916 l 470 916 l 279 203 l 407 203 l 407 170 l 441 170 l 441 -34 l 5 -34 l 14 0 m 339 68 l 339 136 l 148 136 l 347 882 l 68 882 l 68 814 l 259 814 l 60 68 l 339 68 z "},"[":{"ha":407,"x_min":0,"x_max":373,"o":"m 271 949 l 68 949 l 68 0 l 271 0 l 271 68 l 136 68 l 136 882 l 271 882 l 271 949 m 0 -68 l 0 1017 l 339 1017 l 339 983 l 373 983 l 373 780 l 237 780 l 237 136 l 339 136 l 339 102 l 373 102 l 373 -102 l 34 -102 l 34 -68 l 0 -68 z "},"\\":{"ha":475,"x_min":-29,"x_max":470,"o":"m 130 882 l 60 882 l 277 68 l 347 68 l 130 882 m 182 949 l 191 916 l 216 916 l 470 -34 l 259 -34 l 250 0 l 225 0 l -29 949 l 182 949 z "},"]":{"ha":407,"x_min":0,"x_max":373,"o":"m 68 949 l 68 882 l 203 882 l 203 68 l 68 68 l 68 0 l 271 0 l 271 949 l 68 949 m 34 814 l 0 814 l 0 1017 l 339 1017 l 339 983 l 373 983 l 373 -102 l 34 -102 l 34 -68 l 0 -68 l 0 136 l 136 136 l 136 780 l 34 780 l 34 814 z "},"^":{"ha":271,"x_min":0,"x_max":237,"o":"m 203 949 l 203 916 l 237 916 l 237 576 l 34 576 l 34 610 l 0 610 l 0 949 l 203 949 m 136 882 l 68 882 l 68 678 l 136 678 l 136 882 z "},"_":{"ha":543,"x_min":0,"x_max":509,"o":"m 475 203 l 475 170 l 509 170 l 509 -34 l 34 -34 l 34 0 l 0 0 l 0 203 l 475 203 m 407 136 l 68 136 l 68 68 l 407 68 l 407 136 z "},"`":{"ha":271,"x_min":0,"x_max":237,"o":"m 203 949 l 203 916 l 237 916 l 237 576 l 34 576 l 34 610 l 0 610 l 0 949 l 203 949 m 136 882 l 68 882 l 68 678 l 136 678 l 136 882 z "},"a":{"ha":475,"x_min":-68,"x_max":509,"o":"m 159 882 l 135 749 l 14 68 l 82 68 l 94 136 l 313 136 l 325 68 l 393 68 l 249 882 l 159 882 m 187 271 l 220 271 l 203 362 l 187 271 m 106 203 l 203 751 l 301 203 l 106 203 m 306 949 l 312 916 l 340 916 l 509 -34 l 302 -34 l 296 0 l 268 0 l 262 34 l 185 34 l 173 -34 l -34 -34 l -28 0 l -68 0 l -56 68 l 101 949 l 306 949 z "},"b":{"ha":543,"x_min":0,"x_max":509,"o":"m 407 746 q 271 882 407 882 l 68 882 l 68 68 l 271 68 q 407 203 407 68 l 407 407 q 339 475 407 475 q 407 543 407 475 l 407 746 m 439 880 q 509 712 509 831 l 509 475 q 503 441 509 455 q 509 407 509 427 l 509 170 q 305 -34 509 -34 l 34 -34 l 34 0 l 0 0 l 0 949 l 271 949 q 439 880 390 949 m 339 203 q 271 136 339 136 l 136 136 l 136 441 l 271 441 q 339 373 339 441 l 339 203 m 271 203 l 271 339 l 237 339 l 237 203 l 271 203 m 237 576 l 271 576 l 271 712 l 237 712 l 237 576 m 271 814 q 339 746 339 814 l 339 576 q 271 509 339 509 l 136 509 l 136 814 l 271 814 z "},"c":{"ha":543,"x_min":0,"x_max":509,"o":"m 0 746 q 203 949 0 949 l 271 949 q 439 880 390 949 q 509 712 509 831 l 509 576 l 305 576 l 305 610 l 271 610 l 271 712 l 237 712 l 237 203 l 271 203 l 271 339 l 475 339 l 475 305 l 509 305 l 509 170 q 305 -34 509 -34 l 237 -34 q 70 35 119 -34 q 0 203 0 85 l 0 746 m 203 882 q 68 746 68 882 l 68 203 q 203 68 68 68 l 271 68 q 407 203 407 68 l 407 271 l 339 271 l 339 203 q 271 136 339 136 l 203 136 q 136 203 136 136 l 136 746 q 203 814 136 814 l 271 814 q 339 746 339 814 l 339 678 l 407 678 l 407 746 q 271 882 407 882 l 203 882 z "},"d":{"ha":543,"x_min":0,"x_max":509,"o":"m 407 746 q 271 882 407 882 l 68 882 l 68 68 l 271 68 q 407 203 407 68 l 407 746 m 439 880 q 509 712 509 831 l 509 170 q 305 -34 509 -34 l 34 -34 l 34 0 l 0 0 l 0 949 l 271 949 q 439 880 390 949 m 271 203 l 271 712 l 237 712 l 237 203 l 271 203 m 271 814 q 339 746 339 814 l 339 203 q 271 136 339 136 l 136 136 l 136 814 l 271 814 z "},"e":{"ha":475,"x_min":0,"x_max":441,"o":"m 339 882 l 68 882 l 68 68 l 339 68 l 339 136 l 136 136 l 136 441 l 339 441 l 339 509 l 136 509 l 136 814 l 339 814 l 339 882 m 407 949 l 407 916 l 441 916 l 441 712 l 237 712 l 237 576 l 407 576 l 407 543 l 441 543 l 441 339 l 237 339 l 237 203 l 407 203 l 407 170 l 441 170 l 441 -34 l 34 -34 l 34 0 l 0 0 l 0 949 l 407 949 z "},"f":{"ha":475,"x_min":0,"x_max":441,"o":"m 339 882 l 68 882 l 68 68 l 136 68 l 136 441 l 339 441 l 339 509 l 136 509 l 136 814 l 339 814 l 339 882 m 407 949 l 407 916 l 441 916 l 441 712 l 237 712 l 237 576 l 407 576 l 407 543 l 441 543 l 441 339 l 237 339 l 237 -34 l 34 -34 l 34 0 l 0 0 l 0 949 l 407 949 z "},"g":{"ha":543,"x_min":0,"x_max":509,"o":"m 271 203 l 271 339 l 237 339 l 237 203 l 271 203 m 0 746 q 203 949 0 949 l 271 949 q 439 880 390 949 q 509 712 509 831 l 509 644 l 271 644 l 271 712 l 237 712 l 237 576 l 509 576 l 509 170 q 305 -34 509 -34 l 237 -34 q 70 35 119 -34 q 0 203 0 85 l 0 746 m 203 882 q 68 746 68 882 l 68 203 q 203 68 68 68 l 271 68 q 407 203 407 68 l 407 509 l 237 509 l 237 441 l 339 441 l 339 203 q 271 136 339 136 l 203 136 q 136 203 136 136 l 136 746 q 203 814 136 814 l 271 814 q 339 746 339 814 l 339 712 l 407 712 l 407 746 q 271 882 407 882 l 203 882 z "},"h":{"ha":543,"x_min":0,"x_max":509,"o":"m 136 882 l 68 882 l 68 68 l 136 68 l 136 441 l 339 441 l 339 68 l 407 68 l 407 882 l 339 882 l 339 509 l 136 509 l 136 882 m 203 949 l 203 916 l 237 916 l 237 576 l 271 576 l 271 949 l 475 949 l 475 916 l 509 916 l 509 -34 l 305 -34 l 305 0 l 271 0 l 271 373 l 237 373 l 237 -34 l 34 -34 l 34 0 l 0 0 l 0 949 l 203 949 z "},"i":{"ha":271,"x_min":0,"x_max":237,"o":"m 203 949 l 203 916 l 237 916 l 237 -34 l 34 -34 l 34 0 l 0 0 l 0 949 l 203 949 m 136 882 l 68 882 l 68 68 l 136 68 l 136 882 z "},"j":{"ha":543,"x_min":0,"x_max":509,"o":"m 68 271 l 68 203 q 203 68 68 68 l 271 68 q 407 203 407 68 l 407 882 l 339 882 l 339 203 q 271 136 339 136 l 203 136 q 136 203 136 136 l 136 271 l 68 271 m 203 305 l 237 305 l 237 203 l 271 203 l 271 949 l 475 949 l 475 916 l 509 916 l 509 170 q 305 -34 509 -34 l 237 -34 q 70 35 119 -34 q 0 203 0 85 l 0 339 l 203 339 l 203 305 z "},"k":{"ha":475,"x_min":0,"x_max":470,"o":"m 347 882 l 277 882 l 187 543 l 136 543 l 136 882 l 68 882 l 68 68 l 136 68 l 136 407 l 187 407 l 277 68 l 347 68 l 239 475 l 347 882 m 436 949 l 427 916 l 470 916 l 343 441 l 470 -34 l 259 -34 l 250 0 l 237 0 l 237 -34 l 34 -34 l 34 0 l 0 0 l 0 949 l 203 949 l 203 916 l 216 916 l 225 949 l 436 949 z "},"l":{"ha":475,"x_min":0,"x_max":441,"o":"m 339 68 l 339 136 l 136 136 l 136 882 l 68 882 l 68 68 l 339 68 m 34 0 l 0 0 l 0 949 l 203 949 l 203 916 l 237 916 l 237 203 l 407 203 l 407 170 l 441 170 l 441 -34 l 34 -34 l 34 0 z "},"m":{"ha":678,"x_min":0,"x_max":644,"o":"m 165 882 l 68 882 l 68 68 l 136 68 l 136 730 l 305 83 l 475 730 l 475 68 l 543 68 l 543 882 l 445 882 l 305 349 l 165 882 m 218 949 l 227 916 l 252 916 l 317 664 l 393 949 l 610 949 l 610 916 l 644 916 l 644 -34 l 441 -34 l 441 0 l 407 0 l 407 41 l 387 -34 l 291 -34 l 282 0 l 257 0 l 237 75 l 237 -34 l 34 -34 l 34 0 l 0 0 l 0 949 l 218 949 z "},"n":{"ha":543,"x_min":0,"x_max":509,"o":"m 165 882 l 68 882 l 68 68 l 136 68 l 136 730 l 309 68 l 407 68 l 407 882 l 339 882 l 339 220 l 165 882 m 218 949 l 227 916 l 252 916 l 271 841 l 271 949 l 475 949 l 475 916 l 509 916 l 509 -34 l 291 -34 l 282 0 l 257 0 l 237 75 l 237 -34 l 34 -34 l 34 0 l 0 0 l 0 949 l 218 949 z "},"o":{"ha":543,"x_min":0,"x_max":509,"o":"m 271 203 l 271 712 l 237 712 l 237 203 l 271 203 m 0 746 q 203 949 0 949 l 271 949 q 439 880 390 949 q 509 712 509 831 l 509 170 q 305 -34 509 -34 l 237 -34 q 70 35 119 -34 q 0 203 0 85 l 0 746 m 203 882 q 68 746 68 882 l 68 203 q 203 68 68 68 l 271 68 q 407 203 407 68 l 407 746 q 271 882 407 882 l 203 882 m 136 746 q 203 814 136 814 l 271 814 q 339 746 339 814 l 339 203 q 271 136 339 136 l 203 136 q 136 203 136 136 l 136 746 z "},"p":{"ha":543,"x_min":0,"x_max":509,"o":"m 407 746 q 271 882 407 882 l 68 882 l 68 68 l 136 68 l 136 441 l 271 441 q 407 576 407 441 l 407 746 m 439 880 q 509 712 509 831 l 509 543 q 305 339 509 339 l 237 339 l 237 -34 l 34 -34 l 34 0 l 0 0 l 0 949 l 271 949 q 439 880 390 949 m 237 576 l 271 576 l 271 712 l 237 712 l 237 576 m 271 814 q 339 746 339 814 l 339 576 q 271 509 339 509 l 136 509 l 136 814 l 271 814 z "},"q":{"ha":543,"x_min":0,"x_max":509,"o":"m 237 712 l 237 203 l 271 203 l 271 712 l 237 712 m 136 746 q 203 814 136 814 l 271 814 q 339 746 339 814 l 339 203 q 271 136 339 136 l 203 136 q 136 203 136 136 l 136 746 m 271 -34 l 271 68 q 407 203 407 68 l 407 746 q 271 882 407 882 l 203 882 q 68 746 68 882 l 68 203 q 203 68 68 68 l 203 -34 l 271 -34 m 170 -102 l 136 -102 l 136 -17 q 69 35 94 1 q 0 203 0 85 l 0 746 q 203 949 0 949 l 271 949 q 439 880 390 949 q 509 712 509 831 l 509 170 q 373 -27 509 3 l 373 -136 l 170 -136 l 170 -102 z "},"r":{"ha":543,"x_min":0,"x_max":509,"o":"m 407 746 q 271 882 407 882 l 68 882 l 68 68 l 136 68 l 136 441 l 271 441 q 339 373 339 441 l 339 68 l 407 68 l 407 407 q 339 475 407 475 q 407 543 407 475 l 407 746 m 439 880 q 509 712 509 831 l 509 475 q 503 441 509 455 q 509 407 509 427 l 509 -34 l 305 -34 l 305 0 l 271 0 l 271 339 l 237 339 l 237 -34 l 34 -34 l 34 0 l 0 0 l 0 949 l 271 949 q 439 880 390 949 m 237 576 l 271 576 l 271 712 l 237 712 l 237 576 m 271 814 q 339 746 339 814 l 339 576 q 271 509 339 509 l 136 509 l 136 814 l 271 814 z "},"s":{"ha":543,"x_min":0,"x_max":509,"o":"m 203 882 q 68 746 68 882 l 68 576 q 203 441 68 441 l 271 441 q 339 373 339 441 l 339 203 q 271 136 339 136 l 203 136 q 136 203 136 136 l 136 237 l 68 237 l 68 203 q 203 68 68 68 l 271 68 q 407 203 407 68 l 407 373 q 271 509 407 509 l 203 509 q 136 576 136 509 l 136 746 q 203 814 136 814 l 271 814 q 339 746 339 814 l 339 712 l 407 712 l 407 746 q 271 882 407 882 l 203 882 m 237 203 l 271 203 l 271 373 l 203 373 q 0 576 0 373 l 0 746 q 203 949 0 949 l 271 949 q 439 880 390 949 q 509 712 509 831 l 509 610 l 305 610 l 305 644 l 271 644 l 271 712 l 237 712 l 237 576 l 305 576 q 509 373 509 576 l 509 170 q 305 -34 509 -34 l 237 -34 q 70 35 119 -34 q 0 203 0 85 l 0 305 l 203 305 l 203 271 l 237 271 l 237 203 z "},"t":{"ha":543,"x_min":0,"x_max":509,"o":"m 407 882 l 68 882 l 68 814 l 203 814 l 203 68 l 271 68 l 271 814 l 407 814 l 407 882 m 475 949 l 475 916 l 509 916 l 509 712 l 373 712 l 373 -34 l 170 -34 l 170 0 l 136 0 l 136 712 l 34 712 l 34 746 l 0 746 l 0 949 l 475 949 z "},"u":{"ha":543,"x_min":0,"x_max":509,"o":"m 68 882 l 68 203 q 203 68 68 68 l 271 68 q 407 203 407 68 l 407 882 l 339 882 l 339 203 q 271 136 339 136 l 203 136 q 136 203 136 136 l 136 882 l 68 882 m 475 916 l 509 916 l 509 170 q 305 -34 509 -34 l 237 -34 q 70 35 119 -34 q 0 203 0 85 l 0 949 l 203 949 l 203 916 l 237 916 l 237 203 l 271 203 l 271 949 l 475 949 l 475 916 z "},"v":{"ha":475,"x_min":-68,"x_max":509,"o":"m 159 68 l 249 68 l 393 882 l 325 882 l 203 198 l 82 882 l 14 882 l 159 68 m 128 0 l 102 0 l -68 949 l 139 949 l 145 916 l 173 916 l 218 666 l 268 949 l 475 949 l 469 916 l 509 916 l 340 -34 l 135 -34 l 128 0 z "},"w":{"ha":814,"x_min":-68,"x_max":848,"o":"m 159 68 l 249 68 l 373 766 l 498 68 l 588 68 l 732 882 l 664 882 l 543 198 l 421 882 l 325 882 l 203 198 l 82 882 l 14 882 l 159 68 m 130 0 l 100 0 l -68 949 l 139 949 l 145 916 l 173 916 l 218 666 l 268 949 l 478 949 l 484 916 l 512 916 l 557 666 l 607 949 l 814 949 l 808 916 l 848 916 l 680 -28 l 679 -34 l 474 -34 l 469 0 l 441 0 l 393 265 l 340 -34 l 135 -34 l 130 0 z "},"x":{"ha":475,"x_min":-29,"x_max":470,"o":"m 14 0 l -29 0 l 98 475 l -29 949 l 182 949 l 191 916 l 216 916 l 216 915 l 225 949 l 436 949 l 427 916 l 470 916 l 343 441 l 470 -34 l 259 -34 l 250 0 l 225 0 l 225 1 l 216 -34 l 5 -34 l 14 0 m 130 68 l 203 345 l 277 68 l 347 68 l 239 475 l 347 882 l 277 882 l 203 605 l 130 882 l 60 882 l 169 475 l 60 68 l 130 68 z "},"y":{"ha":475,"x_min":-29,"x_max":470,"o":"m 347 882 l 277 882 l 203 605 l 130 882 l 60 882 l 170 472 l 170 68 l 237 68 l 237 470 l 347 882 m 436 949 l 427 916 l 470 916 l 339 426 l 339 -34 l 136 -34 l 136 0 l 102 0 l 102 462 l -29 949 l 182 949 l 191 916 l 216 916 l 216 915 l 225 949 l 436 949 z "},"z":{"ha":475,"x_min":-29,"x_max":470,"o":"m 14 0 l -29 0 l 161 712 l 34 712 l 34 746 l 0 746 l 0 949 l 436 949 l 427 916 l 470 916 l 279 203 l 407 203 l 407 170 l 441 170 l 441 -34 l 5 -34 l 14 0 m 339 68 l 339 136 l 148 136 l 347 882 l 68 882 l 68 814 l 259 814 l 60 68 l 339 68 z "},"{":{"ha":407,"x_min":0,"x_max":373,"o":"m 237 -102 q 70 -33 119 -102 q 0 136 0 17 l 0 814 q 203 1017 0 1017 l 339 1017 l 339 983 l 373 983 l 373 780 l 237 780 l 237 136 l 339 136 l 339 102 l 373 102 l 373 -102 l 237 -102 m 271 949 l 203 949 q 68 814 68 949 l 68 136 q 203 0 68 0 l 271 0 l 271 68 l 203 68 q 136 136 136 68 l 136 814 q 203 882 136 882 l 271 882 l 271 949 z "},"|":{"ha":271,"x_min":0,"x_max":237,"o":"m 203 949 l 203 916 l 237 916 l 237 -34 l 34 -34 l 34 0 l 0 0 l 0 949 l 203 949 m 136 882 l 68 882 l 68 68 l 136 68 l 136 882 z "},"}":{"ha":407,"x_min":0,"x_max":373,"o":"m 271 814 q 136 949 271 949 l 68 949 l 68 882 l 136 882 q 203 814 203 882 l 203 136 q 136 68 203 68 l 68 68 l 68 0 l 136 0 q 271 136 271 0 l 271 814 m 34 814 l 0 814 l 0 1017 l 136 1017 q 304 947 254 1017 q 373 780 373 899 l 373 102 q 170 -102 373 -102 l 34 -102 l 34 -68 l 0 -68 l 0 136 l 136 136 l 136 780 l 34 780 l 34 814 z "},"~":{"ha":475,"x_min":0,"x_max":441,"o":"m 407 576 l 407 543 l 441 543 l 441 339 l 34 339 l 34 373 l 0 373 l 0 576 l 407 576 m 339 509 l 68 509 l 68 441 l 339 441 l 339 509 z "}}}
